<?xml version="1.0" encoding="UTF-8"?>
<svg width="120px" height="120px" viewBox="0 0 120 120" version="1.1" xmlns="http://www.w3.org/2000/svg" xmlns:xlink="http://www.w3.org/1999/xlink">
    <!-- Generator: Sketch 46.2 (44496) - http://www.bohemiancoding.com/sketch -->
    <title>snapkit</title>
    <desc>Created with Sketch.</desc>
    <defs>
        <path d="M40.7999992,0 C27.5,0 23.25,-9.33655997e-09 17.25,2 C10.1800003,4.5 4.5,10.1800003 2,17.25 C0,23.25 0,27.5 0,40.7999992 C0,40.7999992 7.42793205e-08,79.1999969 0,79.1999969 C7.42793205e-08,92.5 5.95996354e-08,96.75 2,102.75 C4.50463867,109.82 10.1800003,115.5 17.25,118 C23.25,120 27.5,120 40.7999992,120 L79.1999969,120 C92.5,120 96.75,120 102.75,118 C109.82,115.5 115.5,109.82 118,102.75 C120,96.75 120,92.5 120,79.1999969 L120,40.7999992 C120,27.5 120,23.25 118,17.25 C115.5,10.25 109.739998,4.5 102.739998,2 C96.7399979,5.60291369e-09 92.5,2.11065014e-08 79.1999969,0 C86.1999969,2.11065014e-08 40.7999992,0 40.7999992,0 Z" id="path-1"></path>
    </defs>
    <g id="Page-1" stroke="none" stroke-width="1" fill="none" fill-rule="evenodd">
        <g id="snapkit">
            <g id="Grid">
                <g id="App-icon">
                    <use fill="#FFFFFF" fill-rule="evenodd" xlink:href="#path-1"></use>
                    <path stroke-opacity="0.130151721" stroke="#9B9B9B" stroke-width="1" d="M40.7999992,0.5 L60.3667999,0.500000007 L75.4242854,0.500000009 L79.4274738,0.500000006 L79.8223163,0.500000005 L79.9136954,0.500000004 L79.9316695,0.500000004 L79.9332177,0.500000004 L79.9335463,0.500000004 L79.9335777,0.500000004 C79.932942,-0.499999996 79.932942,-0.499999996 79.9307074,-0.499999996 L79.1999969,-0.5 L79.1999969,0.5 C92.6811314,0.500000021 95.6102346,0.634929068 99.786046,1.6597644 C100.688432,1.88122969 101.603373,2.14817141 102.581884,2.47434165 C109.434256,4.92173739 115.080834,10.5629419 117.529129,17.4181682 C117.850524,18.3827097 118.11666,19.2945927 118.337633,20.1940594 C119.364734,24.374854 119.5,27.3076711 119.5,40.7999992 L119.5,79.1999969 C119.5,92.6923292 119.364734,95.6251465 118.337633,99.8059415 C118.11666,100.705408 117.850524,101.617291 117.525658,102.591886 C115.078947,109.510939 109.510939,115.078947 102.583311,117.528603 C101.617291,117.850524 100.705408,118.11666 99.8059415,118.337633 C95.6251465,119.364734 92.6923292,119.5 79.1999969,119.5 L40.7999992,119.5 C27.3076711,119.5 24.374854,119.364734 20.1940594,118.337633 C19.2945927,118.11666 18.3827097,117.850524 17.4081139,117.525658 C10.4916487,115.079862 4.92649758,109.513477 2.47129934,102.583036 C2.14947651,101.617291 1.88333994,100.705408 1.66236689,99.8059415 C0.635265672,95.6251467 0.500000075,92.6923292 0.5,79.1999987 C0.500000023,77.999997 0.500000023,77.999997 0.500000031,73.1999973 L0.500000028,59.9999981 L0.500000017,50.7555542 L0.500000005,43.6444435 L0.5,40.7999992 C0.5,27.3076711 0.635265559,24.374854 1.66236662,20.1940594 C1.88333973,19.2945927 2.14947638,18.3827097 2.47434165,17.4081139 C4.92105297,10.4890612 10.4890612,4.92105297 17.416689,2.47139661 C18.3827097,2.14947638 19.2945927,1.88333973 20.1940594,1.66236662 C24.374854,0.635265559 27.3076711,0.5 40.7999991,0.5 Z M79.9335455,-0.499858679 L79.9335768,0.500000004 L79.9307074,0.500000004 L79.1999969,0.5 L79.1999969,-0.5 C79.4480326,-0.5 79.6925243,-0.499954477 79.9335455,-0.499858679 Z"></path>
                </g>
                <rect id="Rectangle-5" fill="#FF5200" x="59" y="1" width="3" height="118"></rect>
                <rect id="Rectangle" fill="#FBF7F6" x="28" y="28" width="64" height="64" rx="8"></rect>
                <g id="Group" transform="translate(52.000000, 50.000000)" fill="#FF5200">
                    <rect id="Rectangle-3" x="0" y="0" width="4" height="20" rx="2"></rect>
                    <rect id="Rectangle-3" x="12" y="0" width="4" height="20" rx="2"></rect>
                </g>
            </g>
        </g>
    </g>
</svg>